<svg xmlns="http://www.w3.org/2000/svg" style="isolation:isolate" width="2000" height="250"><path d="M0 63q216.049 86.042 498.939 86.042c282.889 0 284.697-57.361 478.808-57.361 194.112 0 332.147 121.892 540.637 121.892q208.49 0 481.616-150.573v187H0V63z" fill="#fff" opacity=".06"/><path d="M0 29q216.049 117.556 498.939 117.556c282.889 0 284.697-58.793 478.808-58.793 194.112 0 332.146 93.728 540.637 93.728q208.49 0 481.616-152.491v221H0V29z" fill="#fff" opacity=".06"/><path d="M0 0q216.049 115.029 498.939 115.029c282.889 0 284.697-76.686 478.808-76.686 194.112 0 332.147 162.958 540.637 162.958Q1726.874 201.301 2000 0v250H0V0z" fill="#fff" opacity=".06"/><path d="M0 0q216.049 140.592 498.939 140.592c282.889 0 284.697-132.249 478.808-132.249 194.112 0 332.146 225.124 540.637 225.124Q1726.874 233.467 2000 0v250H0V0z" fill="#fff" opacity=".06"/><path d="M0 87.592q216.049 74.726 498.939 74.726c282.889 0 284.697-49.817 478.808-49.817 194.112 0 332.147 105.862 540.637 105.862q208.49 0 481.616-130.771V250H0V87.592z" fill="#fff"/></svg>