<?xml version="1.0" standalone="no"?><!-- Generator: Gravit.io --><svg xmlns="http://www.w3.org/2000/svg" xmlns:xlink="http://www.w3.org/1999/xlink" style="isolation:isolate" viewBox="518 420 544.44 186.34" width="544.44" height="186.34"><g id="Logo with Icon"><path d=" M 823.74 480.77 L 823.74 480.77 Q 824.64 478.37 826.49 477.12 L 826.49 477.12 L 826.49 477.12 Q 828.34 475.87 830.64 475.87 L 830.64 475.87 L 830.64 475.87 Q 833.54 475.87 835.59 477.67 L 835.59 477.67 L 835.59 477.67 Q 837.64 479.47 837.64 482.57 L 837.64 482.57 L 837.64 482.57 Q 837.64 484.07 837.04 485.87 L 837.04 485.87 L 816.24 542.77 L 816.24 542.77 Q 815.34 545.17 813.09 546.52 L 813.09 546.52 L 813.09 546.52 Q 810.84 547.87 808.14 547.87 L 808.14 547.87 L 808.14 547.87 Q 805.44 547.87 803.24 546.52 L 803.24 546.52 L 803.24 546.52 Q 801.04 545.17 800.14 542.77 L 800.14 542.77 L 785.24 500.67 L 769.94 542.77 L 769.94 542.77 Q 769.04 545.17 766.84 546.52 L 766.84 546.52 L 766.84 546.52 Q 764.64 547.87 761.94 547.87 L 761.94 547.87 L 761.94 547.87 Q 759.34 547.87 757.09 546.52 L 757.09 546.52 L 757.09 546.52 Q 754.84 545.17 753.94 542.77 L 753.94 542.77 L 733.14 485.87 L 733.14 485.87 Q 732.54 484.17 732.54 482.67 L 732.54 482.67 L 732.54 482.67 Q 732.54 479.57 734.74 477.72 L 734.74 477.72 L 734.74 477.72 Q 736.94 475.87 739.94 475.87 L 739.94 475.87 L 739.94 475.87 Q 742.34 475.87 744.29 477.12 L 744.29 477.12 L 744.29 477.12 Q 746.24 478.37 747.14 480.77 L 747.14 480.77 L 762.54 525.07 L 778.54 480.97 L 778.54 480.97 Q 779.44 478.57 781.39 477.27 L 781.39 477.27 L 781.39 477.27 Q 783.34 475.97 785.54 475.97 L 785.54 475.97 L 785.54 475.97 Q 787.84 475.97 789.74 477.27 L 789.74 477.27 L 789.74 477.27 Q 791.64 478.57 792.54 481.07 L 792.54 481.07 L 807.84 525.87 L 823.74 480.77 Z  M 852.24 547.67 L 852.24 547.67 Q 848.94 547.67 846.79 545.87 L 846.79 545.87 L 846.79 545.87 Q 844.64 544.07 844.64 540.57 L 844.64 540.57 L 844.64 504.07 L 844.64 504.07 Q 844.64 500.57 846.84 498.77 L 846.84 498.77 L 846.84 498.77 Q 849.04 496.97 852.24 496.97 L 852.24 496.97 L 852.24 496.97 Q 855.44 496.97 857.59 498.77 L 857.59 498.77 L 857.59 498.77 Q 859.74 500.57 859.74 504.07 L 859.74 504.07 L 859.74 540.57 L 859.74 540.57 Q 859.74 544.07 857.59 545.87 L 857.59 545.87 L 857.59 545.87 Q 855.44 547.67 852.24 547.67 L 852.24 547.67 Z  M 852.24 488.97 L 852.24 488.97 Q 848.24 488.97 845.94 486.92 L 845.94 486.92 L 845.94 486.92 Q 843.64 484.87 843.64 481.37 L 843.64 481.37 L 843.64 481.37 Q 843.64 477.87 845.94 475.87 L 845.94 475.87 L 845.94 475.87 Q 848.24 473.87 852.24 473.87 L 852.24 473.87 L 852.24 473.87 Q 856.14 473.87 858.49 475.92 L 858.49 475.92 L 858.49 475.92 Q 860.84 477.97 860.84 481.37 L 860.84 481.37 L 860.84 481.37 Q 860.84 484.87 858.54 486.92 L 858.54 486.92 L 858.54 486.92 Q 856.24 488.97 852.24 488.97 L 852.24 488.97 Z  M 887.94 547.87 L 887.94 547.87 Q 881.84 547.87 877.34 546.87 L 877.34 546.87 L 877.34 546.87 Q 872.84 545.87 869.44 543.67 L 869.44 543.67 L 869.44 543.67 Q 867.94 542.77 867.14 541.27 L 867.14 541.27 L 867.14 541.27 Q 866.34 539.77 866.34 537.87 L 866.34 537.87 L 866.34 537.87 Q 866.34 535.57 867.64 534.02 L 867.64 534.02 L 867.64 534.02 Q 868.94 532.47 870.84 532.47 L 870.84 532.47 L 870.84 532.47 Q 872.14 532.47 873.44 532.92 L 873.44 532.92 L 873.44 532.92 Q 874.74 533.37 876.14 533.97 L 876.14 533.97 L 876.14 533.97 Q 878.94 535.27 881.64 536.02 L 881.64 536.02 L 881.64 536.02 Q 884.34 536.77 888.34 536.77 L 888.34 536.77 L 888.34 536.77 Q 891.84 536.77 893.79 535.67 L 893.79 535.67 L 893.79 535.67 Q 895.74 534.57 895.74 532.67 L 895.74 532.67 L 895.74 532.67 Q 895.74 531.27 894.89 530.42 L 894.89 530.42 L 894.89 530.42 Q 894.04 529.57 891.74 528.87 L 891.74 528.87 L 891.74 528.87 Q 889.44 528.17 884.44 527.17 L 884.44 527.17 L 884.44 527.17 Q 875.54 525.47 871.64 522.07 L 871.64 522.07 L 871.64 522.07 Q 867.74 518.67 867.74 512.57 L 867.74 512.57 L 867.74 512.57 Q 867.74 508.07 870.49 504.47 L 870.49 504.47 L 870.49 504.47 Q 873.24 500.87 878.04 498.82 L 878.04 498.82 L 878.04 498.82 Q 882.84 496.77 888.84 496.77 L 888.84 496.77 L 888.84 496.77 Q 893.14 496.77 897.24 497.87 L 897.24 497.87 L 897.24 497.87 Q 901.34 498.97 904.54 500.97 L 904.54 500.97 L 904.54 500.97 Q 907.64 502.87 907.64 506.57 L 907.64 506.57 L 907.64 506.57 Q 907.64 508.97 906.34 510.57 L 906.34 510.57 L 906.34 510.57 Q 905.04 512.17 903.14 512.17 L 903.14 512.17 L 903.14 512.17 Q 900.84 512.17 897.64 510.37 L 897.64 510.37 L 897.64 510.37 Q 895.14 509.07 893.09 508.42 L 893.09 508.42 L 893.09 508.42 Q 891.04 507.77 888.24 507.77 L 888.24 507.77 L 888.24 507.77 Q 885.14 507.77 883.34 508.92 L 883.34 508.92 L 883.34 508.92 Q 881.54 510.07 881.54 512.07 L 881.54 512.07 L 881.54 512.07 Q 881.54 514.17 883.64 515.27 L 883.64 515.27 L 883.64 515.27 Q 885.74 516.37 891.74 517.47 L 891.74 517.47 L 891.74 517.47 Q 898.44 518.77 902.24 520.62 L 902.24 520.62 L 902.24 520.62 Q 906.04 522.47 907.74 525.27 L 907.74 525.27 L 907.74 525.27 Q 909.44 528.07 909.44 532.37 L 909.44 532.37 L 909.44 532.37 Q 909.44 539.47 903.59 543.67 L 903.59 543.67 L 903.59 543.67 Q 897.74 547.87 887.94 547.87 L 887.94 547.87 Z  M 946.44 496.77 L 946.44 496.77 Q 952.74 496.77 957.69 500.02 L 957.69 500.02 L 957.69 500.02 Q 962.64 503.27 965.39 509.12 L 965.39 509.12 L 965.39 509.12 Q 968.14 514.97 968.14 522.57 L 968.14 522.57 L 968.14 522.57 Q 968.14 530.17 965.39 535.92 L 965.39 535.92 L 965.39 535.92 Q 962.64 541.67 957.74 544.77 L 957.74 544.77 L 957.74 544.77 Q 952.84 547.87 946.44 547.87 L 946.44 547.87 L 946.44 547.87 Q 941.44 547.87 937.39 545.82 L 937.39 545.82 L 937.39 545.82 Q 933.34 543.77 931.14 540.07 L 931.14 540.07 L 931.14 558.97 L 931.14 558.97 Q 931.14 561.97 929.14 563.77 L 929.14 563.77 L 929.14 563.77 Q 927.14 565.57 923.84 565.57 L 923.84 565.57 L 923.84 565.57 Q 920.34 565.57 918.19 563.67 L 918.19 563.67 L 918.19 563.67 Q 916.04 561.77 916.04 558.67 L 916.04 558.67 L 916.04 504.07 L 916.04 504.07 Q 916.04 500.87 918.09 498.92 L 918.09 498.92 L 918.09 498.92 Q 920.14 496.97 923.54 496.97 L 923.54 496.97 L 923.54 496.97 Q 926.94 496.97 928.94 498.92 L 928.94 498.92 L 928.94 498.92 Q 930.94 500.87 930.94 504.07 L 930.94 504.07 L 930.94 504.87 L 930.94 504.87 Q 933.14 501.07 937.24 498.92 L 937.24 498.92 L 937.24 498.92 Q 941.34 496.77 946.44 496.77 L 946.44 496.77 Z  M 942.04 536.37 L 942.04 536.37 Q 947.34 536.37 950.24 532.82 L 950.24 532.82 L 950.24 532.82 Q 953.14 529.27 953.14 522.57 L 953.14 522.57 L 953.14 522.57 Q 953.14 515.77 950.24 512.02 L 950.24 512.02 L 950.24 512.02 Q 947.34 508.27 942.04 508.27 L 942.04 508.27 L 942.04 508.27 Q 936.74 508.27 933.84 511.92 L 933.84 511.92 L 933.84 511.92 Q 930.94 515.57 930.94 522.37 L 930.94 522.37 L 930.94 522.37 Q 930.94 529.07 933.84 532.72 L 933.84 532.72 L 933.84 532.72 Q 936.74 536.37 942.04 536.37 L 942.04 536.37 Z  M 1014.74 532.47 L 1014.74 532.47 Q 1016.74 532.47 1017.99 534.07 L 1017.99 534.07 L 1017.99 534.07 Q 1019.24 535.67 1019.24 538.17 L 1019.24 538.17 L 1019.24 538.17 Q 1019.24 539.87 1018.24 541.32 L 1018.24 541.32 L 1018.24 541.32 Q 1017.24 542.77 1015.44 543.77 L 1015.44 543.77 L 1015.44 543.77 Q 1012.04 545.57 1007.54 546.72 L 1007.54 546.72 L 1007.54 546.72 Q 1003.04 547.87 999.24 547.87 L 999.24 547.87 L 999.24 547.87 Q 991.24 547.87 985.29 544.77 L 985.29 544.77 L 985.29 544.77 Q 979.34 541.67 976.14 535.92 L 976.14 535.92 L 976.14 535.92 Q 972.94 530.17 972.94 522.37 L 972.94 522.37 L 972.94 522.37 Q 972.94 514.87 976.04 509.07 L 976.04 509.07 L 976.04 509.07 Q 979.14 503.27 984.64 500.02 L 984.64 500.02 L 984.64 500.02 Q 990.14 496.77 997.14 496.77 L 997.14 496.77 L 997.14 496.77 Q 1003.84 496.77 1008.89 499.72 L 1008.89 499.72 L 1008.89 499.72 Q 1013.94 502.67 1016.74 508.12 L 1016.74 508.12 L 1016.74 508.12 Q 1019.54 513.57 1019.54 520.87 L 1019.54 520.87 L 1019.54 520.87 Q 1019.54 523.07 1018.49 524.22 L 1018.49 524.22 L 1018.49 524.22 Q 1017.44 525.37 1015.54 525.37 L 1015.54 525.37 L 987.54 525.37 L 987.54 525.37 Q 988.24 531.27 991.14 533.92 L 991.14 533.92 L 991.14 533.92 Q 994.04 536.57 999.44 536.57 L 999.44 536.57 L 999.44 536.57 Q 1002.34 536.57 1004.64 535.87 L 1004.64 535.87 L 1004.64 535.87 Q 1006.94 535.17 1009.74 533.97 L 1009.74 533.97 L 1009.74 533.97 Q 1011.14 533.37 1012.44 532.92 L 1012.44 532.92 L 1012.44 532.92 Q 1013.74 532.47 1014.74 532.47 L 1014.74 532.47 Z  M 997.54 507.17 L 997.54 507.17 Q 993.24 507.17 990.64 509.92 L 990.64 509.92 L 990.64 509.92 Q 988.04 512.67 987.54 517.87 L 987.54 517.87 L 1006.84 517.87 L 1006.84 517.87 Q 1006.54 512.57 1004.19 509.87 L 1004.19 509.87 L 1004.19 509.87 Q 1001.84 507.17 997.54 507.17 L 997.54 507.17 Z  M 1055.94 496.97 L 1055.94 496.97 Q 1058.94 496.77 1060.69 498.32 L 1060.69 498.32 L 1060.69 498.32 Q 1062.44 499.87 1062.44 502.97 L 1062.44 502.97 L 1062.44 502.97 Q 1062.44 506.27 1060.84 507.87 L 1060.84 507.87 L 1060.84 507.87 Q 1059.24 509.47 1055.14 509.87 L 1055.14 509.87 L 1052.14 510.17 L 1052.14 510.17 Q 1046.64 510.77 1044.19 513.77 L 1044.19 513.77 L 1044.19 513.77 Q 1041.74 516.77 1041.74 521.47 L 1041.74 521.47 L 1041.74 540.57 L 1041.74 540.57 Q 1041.74 544.07 1039.59 545.87 L 1039.59 545.87 L 1039.59 545.87 Q 1037.44 547.67 1034.24 547.67 L 1034.24 547.67 L 1034.24 547.67 Q 1030.94 547.67 1028.79 545.87 L 1028.79 545.87 L 1028.79 545.87 Q 1026.64 544.07 1026.64 540.57 L 1026.64 540.57 L 1026.64 503.87 L 1026.64 503.87 Q 1026.64 500.57 1028.84 498.77 L 1028.84 498.77 L 1028.84 498.77 Q 1031.04 496.97 1034.14 496.97 L 1034.14 496.97 L 1034.14 496.97 Q 1037.14 496.97 1039.14 498.72 L 1039.14 498.72 L 1039.14 498.72 Q 1041.14 500.47 1041.14 503.57 L 1041.14 503.57 L 1041.14 506.27 L 1041.14 506.27 Q 1042.94 501.97 1046.59 499.67 L 1046.59 499.67 L 1046.59 499.67 Q 1050.24 497.37 1054.54 497.07 L 1054.54 497.07 L 1055.94 496.97 Z " fill-rule="evenodd" fill="rgb(255,255,255)"/><path d=" M 555.268 420 L 667.072 420 C 687.641 420 704.34 436.699 704.34 457.268 L 704.34 569.072 C 704.34 589.641 687.641 606.34 667.072 606.34 L 555.268 606.34 C 534.699 606.34 518 589.641 518 569.072 L 518 457.268 C 518 436.699 534.699 420 555.268 420 Z  M 597.326 507.387 C 601.304 508.579 606.061 509.268 611.167 509.268 C 616.272 509.268 621.029 508.579 625.007 507.387 C 628.293 508.957 630.308 511.086 630.308 513.429 C 630.308 518.263 621.731 522.188 611.167 522.188 C 600.602 522.188 592.025 518.263 592.025 513.429 C 592.025 511.086 594.04 508.957 597.326 507.387 M 649.942 519.579 M 604.564 491.413 C 627.114 484.892 643.624 464.078 643.624 439.438 C 643.624 439.166 643.622 438.894 643.617 438.622 C 656.759 448.487 665.262 464.2 665.262 481.882 C 665.262 496.536 659.422 509.837 649.942 519.579 C 659.424 527.143 665.265 537.472 665.265 548.851 C 665.265 550.191 665.184 551.517 665.016 552.823 C 639.728 554.104 619.16 568.905 615.201 588 C 613.316 566.146 589.857 548.851 561.236 548.851 C 559.837 548.851 558.45 548.892 557.076 548.969 C 557.075 548.93 557.075 548.89 557.075 548.851 C 557.075 537.475 562.912 527.15 572.388 519.586 C 563.088 510.02 557.29 497.031 557.078 482.699 C 565.097 488.737 574.849 492.59 585.451 493.376 C 581.452 495.858 579.138 499.205 579.86 502.087 C 580.185 503.387 581.089 504.438 582.416 505.196 C 584.044 502.446 587.242 500.042 591.247 498.894 C 596.376 497.424 601.325 498.447 603.814 501.156 C 606.177 499.009 607.384 496.548 606.835 494.356 C 606.533 493.15 605.733 492.158 604.564 491.413 M 639.917 505.196 C 638.289 502.446 635.091 500.042 631.086 498.894 C 625.957 497.424 621.008 498.447 618.519 501.156 C 616.156 499.009 614.949 496.548 615.498 494.356 C 616.533 490.225 623.416 488.603 630.861 490.736 C 638.305 492.87 643.508 497.956 642.473 502.087 C 642.148 503.387 641.244 504.438 639.917 505.196 M 597.326 507.387 Z " fill-rule="evenodd" fill="rgb(255,255,255)"/></g></svg>