<?xml version="1.0" standalone="no"?><!-- Generator: Gravit.io --><svg xmlns="http://www.w3.org/2000/svg" xmlns:xlink="http://www.w3.org/1999/xlink" style="isolation:isolate" viewBox="0 0 380 380" width="380" height="380"><defs><clipPath id="_clipPath_nlQe395OJ14cLH3wcnbuB6gpgWkQcrz3"><rect width="380" height="380"/></clipPath></defs><g clip-path="url(#_clipPath_nlQe395OJ14cLH3wcnbuB6gpgWkQcrz3)"><line x1="285" y1="148" x2="104" y2="83" vector-effect="non-scaling-stroke" stroke-width="4" stroke-dasharray="18" stroke="rgb(231,231,240)" stroke-linejoin="miter" stroke-linecap="square" stroke-miterlimit="3"/><line x1="111" y1="289" x2="104" y2="83" vector-effect="non-scaling-stroke" stroke-width="4" stroke-dasharray="18" stroke="rgb(231,231,240)" stroke-linejoin="miter" stroke-linecap="square" stroke-miterlimit="3"/><line x1="111" y1="289" x2="285" y2="148" vector-effect="non-scaling-stroke" stroke-width="4" stroke-dasharray="18" stroke="rgb(231,231,240)" stroke-linejoin="miter" stroke-linecap="square" stroke-miterlimit="3"/><g id="Group"><line x1="285" y1="148" x2="321" y2="196" vector-effect="non-scaling-stroke" stroke-width="4" stroke-dasharray="8" stroke="rgb(180,180,210)" stroke-linejoin="miter" stroke-linecap="square" stroke-miterlimit="3"/><line x1="285" y1="148" x2="314" y2="78" vector-effect="non-scaling-stroke" stroke-width="4" stroke-dasharray="8" stroke="rgb(180,180,210)" stroke-linejoin="miter" stroke-linecap="square" stroke-miterlimit="3"/><line x1="285" y1="148" x2="251" y2="78" vector-effect="non-scaling-stroke" stroke-width="4" stroke-dasharray="8" stroke="rgb(180,180,210)" stroke-linejoin="miter" stroke-linecap="square" stroke-miterlimit="3"/><line x1="155" y1="35" x2="104" y2="83" vector-effect="non-scaling-stroke" stroke-width="4" stroke-dasharray="8" stroke="rgb(180,180,210)" stroke-linejoin="miter" stroke-linecap="square" stroke-miterlimit="3"/><line x1="37" y1="28" x2="104" y2="83" vector-effect="non-scaling-stroke" stroke-width="4" stroke-dasharray="8" stroke="rgb(180,180,210)" stroke-linejoin="miter" stroke-linecap="square" stroke-miterlimit="3"/><line x1="33" y1="109" x2="104" y2="83" vector-effect="non-scaling-stroke" stroke-width="4" stroke-dasharray="8" stroke="rgb(180,180,210)" stroke-linejoin="miter" stroke-linecap="square" stroke-miterlimit="3"/><line x1="148" y1="159" x2="104" y2="83" vector-effect="non-scaling-stroke" stroke-width="4" stroke-dasharray="8" stroke="rgb(180,180,210)" stroke-linejoin="miter" stroke-linecap="square" stroke-miterlimit="3"/><line x1="62" y1="225" x2="111" y2="289" vector-effect="non-scaling-stroke" stroke-width="4" stroke-dasharray="8" stroke="rgb(180,180,210)" stroke-linejoin="miter" stroke-linecap="square" stroke-miterlimit="3"/><line x1="138" y1="230" x2="111" y2="289" vector-effect="non-scaling-stroke" stroke-width="4" stroke-dasharray="8" stroke="rgb(180,180,210)" stroke-linejoin="miter" stroke-linecap="square" stroke-miterlimit="3"/><line x1="175" y1="330" x2="111" y2="289" vector-effect="non-scaling-stroke" stroke-width="4" stroke-dasharray="8" stroke="rgb(180,180,210)" stroke-linejoin="miter" stroke-linecap="square" stroke-miterlimit="3"/><line x1="101" y1="351" x2="111" y2="289" vector-effect="non-scaling-stroke" stroke-width="4" stroke-dasharray="8" stroke="rgb(180,180,210)" stroke-linejoin="miter" stroke-linecap="square" stroke-miterlimit="3"/><line x1="57" y1="313" x2="111" y2="289" vector-effect="non-scaling-stroke" stroke-width="4" stroke-dasharray="8" stroke="rgb(180,180,210)" stroke-linejoin="miter" stroke-linecap="square" stroke-miterlimit="3"/></g><defs><filter id="Nf7K7fKCPXIZ9EcioenjnBWo8ZRxR2qI" x="-200%" y="-200%" width="400%" height="400%"><feOffset xmlns="http://www.w3.org/2000/svg" in="SourceAlpha" result="offOut" dx="0" dy="0"/><feGaussianBlur xmlns="http://www.w3.org/2000/svg" in="offOut" result="blurOut" stdDeviation="12.5"/><feComponentTransfer xmlns="http://www.w3.org/2000/svg" in="blurOut" result="opacOut"><feFuncA xmlns="http://www.w3.org/2000/svg" type="table" tableValues="0 0.5"/></feComponentTransfer><feBlend xmlns="http://www.w3.org/2000/svg" in="SourceGraphic" in2="opacOut" mode="normal"/></filter></defs><g filter="url(#Nf7K7fKCPXIZ9EcioenjnBWo8ZRxR2qI)"><path d=" M 264 147 C 264 135.41 273.41 126 285 126 C 296.59 126 306 135.41 306 147 C 306 158.59 296.59 168 285 168 C 273.41 168 264 158.59 264 147 Z " fill="rgb(57,60,201)"/></g><defs><filter id="UC5NG1ik0xl165W1fu3DP9PmOBw27lFz" x="-200%" y="-200%" width="400%" height="400%"><feOffset xmlns="http://www.w3.org/2000/svg" in="SourceAlpha" result="offOut" dx="0" dy="0"/><feGaussianBlur xmlns="http://www.w3.org/2000/svg" in="offOut" result="blurOut" stdDeviation="12.5"/><feComponentTransfer xmlns="http://www.w3.org/2000/svg" in="blurOut" result="opacOut"><feFuncA xmlns="http://www.w3.org/2000/svg" type="table" tableValues="0 0.5"/></feComponentTransfer><feBlend xmlns="http://www.w3.org/2000/svg" in="SourceGraphic" in2="opacOut" mode="normal"/></filter></defs><g filter="url(#UC5NG1ik0xl165W1fu3DP9PmOBw27lFz)"><path d=" M 239 76 C 239 69.929 243.929 65 250 65 C 256.071 65 261 69.929 261 76 C 261 82.071 256.071 87 250 87 C 243.929 87 239 82.071 239 76 Z " fill="rgb(226,214,42)"/></g><defs><filter id="CQvQRMDO2z8Mgtrdx7RoT21Mmn78UxVS" x="-200%" y="-200%" width="400%" height="400%"><feOffset xmlns="http://www.w3.org/2000/svg" in="SourceAlpha" result="offOut" dx="0" dy="0"/><feGaussianBlur xmlns="http://www.w3.org/2000/svg" in="offOut" result="blurOut" stdDeviation="12.5"/><feComponentTransfer xmlns="http://www.w3.org/2000/svg" in="blurOut" result="opacOut"><feFuncA xmlns="http://www.w3.org/2000/svg" type="table" tableValues="0 0.5"/></feComponentTransfer><feBlend xmlns="http://www.w3.org/2000/svg" in="SourceGraphic" in2="opacOut" mode="normal"/></filter></defs><g filter="url(#CQvQRMDO2z8Mgtrdx7RoT21Mmn78UxVS)"><path d=" M 136 157 C 136 150.929 140.929 146 147 146 C 153.071 146 158 150.929 158 157 C 158 163.071 153.071 168 147 168 C 140.929 168 136 163.071 136 157 Z " fill="rgb(226,214,42)"/></g><defs><filter id="yZxlVv6ReK0eiTcjBV6Lp69M3gsIOyhm" x="-200%" y="-200%" width="400%" height="400%"><feOffset xmlns="http://www.w3.org/2000/svg" in="SourceAlpha" result="offOut" dx="0" dy="0"/><feGaussianBlur xmlns="http://www.w3.org/2000/svg" in="offOut" result="blurOut" stdDeviation="12.5"/><feComponentTransfer xmlns="http://www.w3.org/2000/svg" in="blurOut" result="opacOut"><feFuncA xmlns="http://www.w3.org/2000/svg" type="table" tableValues="0 0.5"/></feComponentTransfer><feBlend xmlns="http://www.w3.org/2000/svg" in="SourceGraphic" in2="opacOut" mode="normal"/></filter></defs><g filter="url(#yZxlVv6ReK0eiTcjBV6Lp69M3gsIOyhm)"><path d=" M 21 109 C 21 102.929 25.929 98 32 98 C 38.071 98 43 102.929 43 109 C 43 115.071 38.071 120 32 120 C 25.929 120 21 115.071 21 109 Z " fill="rgb(226,214,42)"/></g><defs><filter id="aOkEbfpGHZ5mUOS8KeUoEBfsHOV18DS1" x="-200%" y="-200%" width="400%" height="400%"><feOffset xmlns="http://www.w3.org/2000/svg" in="SourceAlpha" result="offOut" dx="0" dy="0"/><feGaussianBlur xmlns="http://www.w3.org/2000/svg" in="offOut" result="blurOut" stdDeviation="12.5"/><feComponentTransfer xmlns="http://www.w3.org/2000/svg" in="blurOut" result="opacOut"><feFuncA xmlns="http://www.w3.org/2000/svg" type="table" tableValues="0 0.5"/></feComponentTransfer><feBlend xmlns="http://www.w3.org/2000/svg" in="SourceGraphic" in2="opacOut" mode="normal"/></filter></defs><g filter="url(#aOkEbfpGHZ5mUOS8KeUoEBfsHOV18DS1)"><path d=" M 126 229.5 C 126 223.429 130.929 218.5 137 218.5 C 143.071 218.5 148 223.429 148 229.5 C 148 235.571 143.071 240.5 137 240.5 C 130.929 240.5 126 235.571 126 229.5 Z " fill="rgb(226,214,42)"/></g><defs><filter id="kQGTdiIfOG3x1C6nhIXrMnSURpB6JPFJ" x="-200%" y="-200%" width="400%" height="400%"><feOffset xmlns="http://www.w3.org/2000/svg" in="SourceAlpha" result="offOut" dx="0" dy="0"/><feGaussianBlur xmlns="http://www.w3.org/2000/svg" in="offOut" result="blurOut" stdDeviation="12.5"/><feComponentTransfer xmlns="http://www.w3.org/2000/svg" in="blurOut" result="opacOut"><feFuncA xmlns="http://www.w3.org/2000/svg" type="table" tableValues="0 0.5"/></feComponentTransfer><feBlend xmlns="http://www.w3.org/2000/svg" in="SourceGraphic" in2="opacOut" mode="normal"/></filter></defs><g filter="url(#kQGTdiIfOG3x1C6nhIXrMnSURpB6JPFJ)"><path d=" M 47 312 C 47 305.929 51.929 301 58 301 C 64.071 301 69 305.929 69 312 C 69 318.071 64.071 323 58 323 C 51.929 323 47 318.071 47 312 Z " fill="rgb(226,214,42)"/></g><defs><filter id="JXQybcc5F48BUKCs4Teq2K5V0f4sme0n" x="-200%" y="-200%" width="400%" height="400%"><feOffset xmlns="http://www.w3.org/2000/svg" in="SourceAlpha" result="offOut" dx="0" dy="0"/><feGaussianBlur xmlns="http://www.w3.org/2000/svg" in="offOut" result="blurOut" stdDeviation="12.5"/><feComponentTransfer xmlns="http://www.w3.org/2000/svg" in="blurOut" result="opacOut"><feFuncA xmlns="http://www.w3.org/2000/svg" type="table" tableValues="0 0.5"/></feComponentTransfer><feBlend xmlns="http://www.w3.org/2000/svg" in="SourceGraphic" in2="opacOut" mode="normal"/></filter></defs><g filter="url(#JXQybcc5F48BUKCs4Teq2K5V0f4sme0n)"><path d=" M 302 79 C 302 72.929 306.929 68 313 68 C 319.071 68 324 72.929 324 79 C 324 85.071 319.071 90 313 90 C 306.929 90 302 85.071 302 79 Z " fill="rgb(24,167,74)"/></g><defs><filter id="LtBi7BTvG4frzdMJOybBSGVniOcWAjL6" x="-200%" y="-200%" width="400%" height="400%"><feOffset xmlns="http://www.w3.org/2000/svg" in="SourceAlpha" result="offOut" dx="0" dy="0"/><feGaussianBlur xmlns="http://www.w3.org/2000/svg" in="offOut" result="blurOut" stdDeviation="12.5"/><feComponentTransfer xmlns="http://www.w3.org/2000/svg" in="blurOut" result="opacOut"><feFuncA xmlns="http://www.w3.org/2000/svg" type="table" tableValues="0 0.5"/></feComponentTransfer><feBlend xmlns="http://www.w3.org/2000/svg" in="SourceGraphic" in2="opacOut" mode="normal"/></filter></defs><g filter="url(#LtBi7BTvG4frzdMJOybBSGVniOcWAjL6)"><path d=" M 90 351 C 90 344.929 94.929 340 101 340 C 107.071 340 112 344.929 112 351 C 112 357.071 107.071 362 101 362 C 94.929 362 90 357.071 90 351 Z " fill="rgb(24,167,74)"/></g><defs><filter id="neF6WQXthJb3kmzI9aPh575YQSgMmUrc" x="-200%" y="-200%" width="400%" height="400%"><feOffset xmlns="http://www.w3.org/2000/svg" in="SourceAlpha" result="offOut" dx="0" dy="0"/><feGaussianBlur xmlns="http://www.w3.org/2000/svg" in="offOut" result="blurOut" stdDeviation="12.5"/><feComponentTransfer xmlns="http://www.w3.org/2000/svg" in="blurOut" result="opacOut"><feFuncA xmlns="http://www.w3.org/2000/svg" type="table" tableValues="0 0.5"/></feComponentTransfer><feBlend xmlns="http://www.w3.org/2000/svg" in="SourceGraphic" in2="opacOut" mode="normal"/></filter></defs><g filter="url(#neF6WQXthJb3kmzI9aPh575YQSgMmUrc)"><path d=" M 143 36 C 143 29.929 147.929 25 154 25 C 160.071 25 165 29.929 165 36 C 165 42.071 160.071 47 154 47 C 147.929 47 143 42.071 143 36 Z " fill="rgb(24,167,74)"/></g><defs><filter id="Xw6QQ5awQ8jRobPAwgaq0Fld1MkQ3pJT" x="-200%" y="-200%" width="400%" height="400%"><feOffset xmlns="http://www.w3.org/2000/svg" in="SourceAlpha" result="offOut" dx="0" dy="0"/><feGaussianBlur xmlns="http://www.w3.org/2000/svg" in="offOut" result="blurOut" stdDeviation="12.5"/><feComponentTransfer xmlns="http://www.w3.org/2000/svg" in="blurOut" result="opacOut"><feFuncA xmlns="http://www.w3.org/2000/svg" type="table" tableValues="0 0.5"/></feComponentTransfer><feBlend xmlns="http://www.w3.org/2000/svg" in="SourceGraphic" in2="opacOut" mode="normal"/></filter></defs><g filter="url(#Xw6QQ5awQ8jRobPAwgaq0Fld1MkQ3pJT)"><path d=" M 25 28 C 25 21.929 29.929 17 36 17 C 42.071 17 47 21.929 47 28 C 47 34.071 42.071 39 36 39 C 29.929 39 25 34.071 25 28 Z " fill="rgb(24,167,74)"/></g><defs><filter id="gxZmvJOPeh3CvJ9mVyNEIMVf25sP18pp" x="-200%" y="-200%" width="400%" height="400%"><feOffset xmlns="http://www.w3.org/2000/svg" in="SourceAlpha" result="offOut" dx="0" dy="0"/><feGaussianBlur xmlns="http://www.w3.org/2000/svg" in="offOut" result="blurOut" stdDeviation="12.5"/><feComponentTransfer xmlns="http://www.w3.org/2000/svg" in="blurOut" result="opacOut"><feFuncA xmlns="http://www.w3.org/2000/svg" type="table" tableValues="0 0.5"/></feComponentTransfer><feBlend xmlns="http://www.w3.org/2000/svg" in="SourceGraphic" in2="opacOut" mode="normal"/></filter></defs><g filter="url(#gxZmvJOPeh3CvJ9mVyNEIMVf25sP18pp)"><path d=" M 309 195 C 309 188.929 313.929 184 320 184 C 326.071 184 331 188.929 331 195 C 331 201.071 326.071 206 320 206 C 313.929 206 309 201.071 309 195 Z " fill="rgb(202,22,53)"/></g><defs><filter id="bpfmznQ5JdTDseahXAkdyGnX3RulF82h" x="-200%" y="-200%" width="400%" height="400%"><feOffset xmlns="http://www.w3.org/2000/svg" in="SourceAlpha" result="offOut" dx="0" dy="0"/><feGaussianBlur xmlns="http://www.w3.org/2000/svg" in="offOut" result="blurOut" stdDeviation="12.5"/><feComponentTransfer xmlns="http://www.w3.org/2000/svg" in="blurOut" result="opacOut"><feFuncA xmlns="http://www.w3.org/2000/svg" type="table" tableValues="0 0.5"/></feComponentTransfer><feBlend xmlns="http://www.w3.org/2000/svg" in="SourceGraphic" in2="opacOut" mode="normal"/></filter></defs><g filter="url(#bpfmznQ5JdTDseahXAkdyGnX3RulF82h)"><path d=" M 162 329 C 162 322.929 166.929 318 173 318 C 179.071 318 184 322.929 184 329 C 184 335.071 179.071 340 173 340 C 166.929 340 162 335.071 162 329 Z " fill="rgb(202,22,53)"/></g><defs><filter id="DdJ3bPGjCQmJLTPBQPTyaNPkCkIAFuSp" x="-200%" y="-200%" width="400%" height="400%"><feOffset xmlns="http://www.w3.org/2000/svg" in="SourceAlpha" result="offOut" dx="0" dy="0"/><feGaussianBlur xmlns="http://www.w3.org/2000/svg" in="offOut" result="blurOut" stdDeviation="12.5"/><feComponentTransfer xmlns="http://www.w3.org/2000/svg" in="blurOut" result="opacOut"><feFuncA xmlns="http://www.w3.org/2000/svg" type="table" tableValues="0 0.5"/></feComponentTransfer><feBlend xmlns="http://www.w3.org/2000/svg" in="SourceGraphic" in2="opacOut" mode="normal"/></filter></defs><g filter="url(#DdJ3bPGjCQmJLTPBQPTyaNPkCkIAFuSp)"><path d=" M 50 225 C 50 218.929 54.929 214 61 214 C 67.071 214 72 218.929 72 225 C 72 231.071 67.071 236 61 236 C 54.929 236 50 231.071 50 225 Z " fill="rgb(202,22,53)"/></g><defs><filter id="XtzTtzxwpIbfUCwcw3GtZFwAeSRuVKo4" x="-200%" y="-200%" width="400%" height="400%"><feOffset xmlns="http://www.w3.org/2000/svg" in="SourceAlpha" result="offOut" dx="0" dy="0"/><feGaussianBlur xmlns="http://www.w3.org/2000/svg" in="offOut" result="blurOut" stdDeviation="12.5"/><feComponentTransfer xmlns="http://www.w3.org/2000/svg" in="blurOut" result="opacOut"><feFuncA xmlns="http://www.w3.org/2000/svg" type="table" tableValues="0 0.5"/></feComponentTransfer><feBlend xmlns="http://www.w3.org/2000/svg" in="SourceGraphic" in2="opacOut" mode="normal"/></filter></defs><g filter="url(#XtzTtzxwpIbfUCwcw3GtZFwAeSRuVKo4)"><path d=" M 83 84 C 83 72.41 92.41 63 104 63 C 115.59 63 125 72.41 125 84 C 125 95.59 115.59 105 104 105 C 92.41 105 83 95.59 83 84 Z " fill="rgb(57,60,201)"/></g><defs><filter id="zlFpvlFeRlHZ6Cout1jTyPeKy1tufvoA" x="-200%" y="-200%" width="400%" height="400%"><feOffset xmlns="http://www.w3.org/2000/svg" in="SourceAlpha" result="offOut" dx="0" dy="0"/><feGaussianBlur xmlns="http://www.w3.org/2000/svg" in="offOut" result="blurOut" stdDeviation="12.5"/><feComponentTransfer xmlns="http://www.w3.org/2000/svg" in="blurOut" result="opacOut"><feFuncA xmlns="http://www.w3.org/2000/svg" type="table" tableValues="0 0.5"/></feComponentTransfer><feBlend xmlns="http://www.w3.org/2000/svg" in="SourceGraphic" in2="opacOut" mode="normal"/></filter></defs><g filter="url(#zlFpvlFeRlHZ6Cout1jTyPeKy1tufvoA)"><path d=" M 90 288 C 90 276.41 99.41 267 111 267 C 122.59 267 132 276.41 132 288 C 132 299.59 122.59 309 111 309 C 99.41 309 90 299.59 90 288 Z " fill="rgb(57,60,201)"/></g></g></svg>